<?xml version="1.0" encoding="UTF-8"?>
<!DOCTYPE svg PUBLIC "-//W3C//DTD SVG 1.1//EN" "http://www.w3.org/Graphics/SVG/1.1/DTD/svg11.dtd">
<!-- Creator: CorelDRAW X6 -->
<svg xmlns="http://www.w3.org/2000/svg" xml:space="preserve" width="54.5042mm" height="11.9934mm" version="1.1" style="shape-rendering:geometricPrecision; text-rendering:geometricPrecision; image-rendering:optimizeQuality; fill-rule:evenodd; clip-rule:evenodd"
viewBox="0 0 5434 1196"
 xmlns:xlink="http://www.w3.org/1999/xlink">
 <defs>
  <style type="text/css">
   <![CDATA[
    .fil4 {fill:#D2D3D5}
    .fil1 {fill:#FEFEFE}
    .fil2 {fill:#0098DA;fill-rule:nonzero}
    .fil3 {fill:#727376;fill-rule:nonzero}
    .fil5 {fill:#A02B2D;fill-rule:nonzero}
    .fil0 {fill:#373435;fill-opacity:0.501961}
   ]]>
  </style>
 </defs>
 <g id="Capa_x0020_1">
  <metadata id="CorelCorpID_0Corel-Layer"/>
  <polygon class="fil0" points="0,0 5430,165 5430,1020 0,855 "/>
  <polygon class="fil0" points="5434,1196 17,1031 17,176 5434,341 "/>
  <rect class="fil1" y="165" width="5434" height="855"/>
  <g id="_807067440">
   <path class="fil2" d="M3045 351c52,0 93,14 122,42 29,28 45,60 48,95l-55 0c-6,-27 -18,-48 -37,-64 -18,-16 -44,-24 -77,-24 -41,0 -73,14 -98,43 -25,29 -37,73 -37,133 0,49 11,89 34,119 23,30 56,46 101,46 41,0 72,-16 94,-48 11,-17 20,-39 25,-66l55 0c-5,44 -21,81 -48,111 -33,36 -77,54 -133,54 -48,0 -88,-15 -121,-44 -43,-39 -64,-99 -64,-180 0,-62 16,-112 48,-152 35,-43 83,-64 144,-64zm462 257l-64 -184 -67 184 131 0zm-94 -246l64 0 151 418 -62 0 -44 -126 -163 0 -46 126 -58 0 157 -418zm266 0l57 0 0 369 208 0 0 50 -266 0 0 -418z"/>
   <path class="fil3" d="M2930 911l-54 0 0 -30 49 0 0 -11 -49 0 0 -27 53 0 0 -11 -65 0 0 89 66 0 0 -11zm59 -36c0,-3 -2,-20 -25,-20 -13,0 -25,6 -25,21 0,9 6,14 15,16l13 3c9,2 13,4 13,9 0,7 -7,10 -15,10 -15,0 -17,-8 -17,-13l-11 0c0,8 2,23 28,23 15,0 26,-8 26,-21 0,-9 -5,-14 -18,-17l-11 -3c-8,-2 -12,-3 -12,-9 0,-8 10,-9 13,-9 14,0 15,7 15,11l11 0zm66 3c-1,-11 -7,-24 -24,-24 -21,0 -31,16 -31,36 0,19 11,33 29,33 19,0 25,-15 26,-25l-11 0c-2,10 -8,15 -16,15 -15,0 -18,-14 -18,-25 0,-12 4,-24 18,-24 9,0 14,5 15,14l11 0zm21 -2c1,-5 2,-13 15,-13 10,0 15,4 15,11 0,6 -3,7 -6,8l-18 2c-18,2 -20,15 -20,20 0,11 8,19 20,19 13,0 19,-6 23,-11 0,5 2,10 12,10 2,0 4,-1 6,-1l0 -8c-1,0 -3,0 -4,0 -2,0 -4,-1 -4,-4l0 -37c0,-17 -19,-18 -24,-18 -16,0 -26,6 -27,22l10 0zm30 23c0,9 -10,15 -20,15 -8,0 -12,-4 -12,-11 0,-8 9,-10 14,-11 14,-2 16,-3 18,-4l0 11zm41 -67l-11 0 0 89 11 0 0 -89zm26 44c1,-5 2,-13 15,-13 10,0 15,4 15,11 0,6 -3,7 -6,8l-18 2c-18,2 -20,15 -20,20 0,11 8,19 20,19 13,0 19,-6 23,-11 0,5 2,10 12,10 2,0 4,-1 6,-1l0 -8c-1,0 -3,0 -4,0 -2,0 -4,-1 -4,-4l0 -37c0,-17 -19,-18 -24,-18 -16,0 -26,6 -27,22l10 0zm30 23c0,9 -10,15 -20,15 -8,0 -12,-4 -12,-11 0,-8 9,-10 14,-11 14,-2 16,-3 18,-4l0 11zm77 -24c0,-3 -2,-20 -25,-20 -13,0 -25,6 -25,21 0,9 6,14 15,16l13 3c9,2 13,4 13,9 0,7 -7,10 -15,10 -15,0 -17,-8 -17,-13l-11 0c0,8 2,23 28,23 15,0 26,-8 26,-21 0,-9 -5,-14 -18,-17l-11 -3c-8,-2 -12,-3 -12,-9 0,-8 10,-9 13,-9 14,0 15,7 15,11l11 0zm64 -32l24 0c10,0 18,4 18,15 0,12 -7,16 -18,16l-24 0 0 -31zm0 41l28 0c19,0 26,-14 26,-26 0,-14 -10,-25 -26,-25l-40 0 0 89 12 0 0 -38zm74 0c0,-9 6,-17 17,-17l4 0 0 -11c-1,0 -1,0 -3,0 -8,0 -14,5 -18,13l0 0 0 -11 -10 0 0 65 11 0 0 -38zm23 5c0,17 9,34 30,34 21,0 30,-18 30,-34 0,-17 -9,-34 -30,-34 -21,0 -30,18 -30,34zm11 0c0,-9 3,-25 19,-25 16,0 19,16 19,25 0,9 -3,25 -19,25 -16,0 -19,-16 -19,-25zm114 -12c0,-19 -13,-23 -23,-23 -11,0 -17,8 -20,11l0 0 0 -9 -10 0 0 65 11 0 0 -35c0,-18 11,-22 17,-22 11,0 14,6 14,17l0 40 11 0 0 -44zm12 12c0,17 9,34 30,34 21,0 30,-18 30,-34 0,-17 -9,-34 -30,-34 -21,0 -30,18 -30,34zm11 0c0,-9 3,-25 19,-25 16,0 19,16 19,25 0,9 -3,25 -19,25 -16,0 -19,-16 -19,-25zm38 -59l-13 0 -11 18 8 0 16 -18zm71 45c0,-3 -2,-20 -25,-20 -13,0 -25,6 -25,21 0,9 6,14 15,16l13 3c9,2 13,4 13,9 0,7 -7,10 -15,10 -15,0 -17,-8 -17,-13l-11 0c0,8 2,23 28,23 15,0 26,-8 26,-21 0,-9 -5,-14 -18,-17l-11 -3c-8,-2 -12,-3 -12,-9 0,-8 10,-9 13,-9 14,0 15,7 15,11l11 0zm38 -9l0 -9 -10 0 0 -18 -11 0 0 18 -9 0 0 9 9 0 0 43c0,8 2,14 13,14 1,0 4,0 8,-1l0 -9 -4 0c-2,0 -7,0 -7,-5l0 -42 10 0zm22 -9l-11 0 0 65 11 0 0 -65zm0 -12l0 -12 -11 0 0 12 11 0zm68 34c-1,-11 -7,-24 -24,-24 -21,0 -31,16 -31,36 0,19 11,33 29,33 19,0 25,-15 26,-25l-11 0c-2,10 -8,15 -16,15 -15,0 -18,-14 -18,-25 0,-12 4,-24 18,-24 9,0 14,5 15,14l11 0zm21 -2c1,-5 2,-13 15,-13 10,0 15,4 15,11 0,6 -3,7 -6,8l-18 2c-18,2 -20,15 -20,20 0,11 8,19 20,19 13,0 19,-6 23,-11 0,5 2,10 12,10 2,0 4,-1 6,-1l0 -8c-1,0 -3,0 -4,0 -2,0 -4,-1 -4,-4l0 -37c0,-17 -19,-18 -24,-18 -16,0 -26,6 -27,22l10 0zm30 23c0,9 -10,15 -20,15 -8,0 -12,-4 -12,-11 0,-8 9,-10 14,-11 14,-2 16,-3 18,-4l0 11zm77 -24c0,-3 -2,-20 -25,-20 -13,0 -25,6 -25,21 0,9 6,14 15,16l13 3c9,2 13,4 13,9 0,7 -7,10 -15,10 -15,0 -17,-8 -17,-13l-11 0c0,8 2,23 28,23 15,0 26,-8 26,-21 0,-9 -5,-14 -18,-17l-11 -3c-8,-2 -12,-3 -12,-9 0,-8 10,-9 13,-9 14,0 15,7 15,11l11 0z"/>
   <path class="fil4" d="M2753 260l0 0c14,0 25,11 25,25l0 557c0,14 -11,25 -25,25l0 0c-14,0 -25,-11 -25,-25l0 -557c0,-14 11,-25 25,-25z"/>
   <path class="fil5" d="M1480 363l57 0 0 369 208 0 0 50 -266 0 0 -418zm323 0l81 0 120 353 119 -353 81 0 0 418 -54 0 0 -247c0,-9 0,-23 1,-42 1,-20 1,-41 1,-63l-120 353 -56 0 -120 -353 0 13c0,10 0,26 1,47 1,21 1,36 1,46l0 247 -54 0 0 -418zm660 -11c52,0 93,14 122,42 29,28 45,60 48,95l-55 0c-6,-27 -18,-48 -37,-64 -18,-16 -44,-24 -77,-24 -41,0 -73,14 -98,43 -25,29 -37,73 -37,133 0,49 11,89 34,119 23,30 56,46 101,46 41,0 72,-16 94,-48 11,-17 20,-39 25,-66l55 0c-5,44 -21,81 -48,111 -33,36 -77,54 -133,54 -48,0 -88,-15 -121,-44 -43,-39 -64,-99 -64,-180 0,-62 16,-112 48,-152 35,-43 83,-64 144,-64z"/>
  </g>
 </g>
</svg>
