<?xml version="1.0" encoding="UTF-8"?>
<!DOCTYPE svg PUBLIC "-//W3C//DTD SVG 1.1//EN" "http://www.w3.org/Graphics/SVG/1.1/DTD/svg11.dtd">
<!-- Creator: CorelDRAW X6 -->
<svg xmlns="http://www.w3.org/2000/svg" xml:space="preserve" width="20.3854mm" height="23.1708mm" version="1.1" style="shape-rendering:geometricPrecision; text-rendering:geometricPrecision; image-rendering:optimizeQuality; fill-rule:evenodd; clip-rule:evenodd"
viewBox="0 0 2039 2317"
 xmlns:xlink="http://www.w3.org/1999/xlink">
 <defs>
  <style type="text/css">
   <![CDATA[
    .fil8 {fill:none}
    .fil7 {fill:#0098DA}
    .fil13 {fill:#3E4095}
    .fil11 {fill:#A53692}
    .fil10 {fill:#FFCC29}
    .fil3 {fill:#201E1E;fill-opacity:0.070588}
    .fil5 {fill:#FEFEFE;fill-opacity:0.129412}
    .fil6 {fill:#201E1E;fill-opacity:0.160784}
    .fil2 {fill:#FEFEFE;fill-opacity:0.160784}
    .fil0 {fill:#FEFEFE;fill-opacity:0.200000}
    .fil15 {fill:#FEFEFE;fill-opacity:0.270588}
    .fil4 {fill:#2A2929;fill-opacity:0.290196}
    .fil9 {fill:#373435;fill-opacity:0.309804}
    .fil14 {fill:#F58634;fill-opacity:0.360784}
    .fil12 {fill:#F58634;fill-opacity:0.501961}
    .fil1 {fill:url(#id12)}
   ]]>
  </style>
    <clipPath id="id0">
     <path d="M468 414c-1,62 10,125 35,190 5,20 19,27 36,31 10,-23 16,-48 -5,-91 -19,-48 -41,-91 -66,-130zm-71 -134c-147,-33 -177,46 -112,214 32,62 74,120 155,158 20,23 41,45 61,68 15,92 13,181 -12,266 -52,184 -104,368 -84,569 15,150 48,284 122,385 73,88 282,-23 186,-183 -141,-349 -123,-365 -124,-742 3,-36 5,-73 8,-109 72,88 144,177 216,265 47,57 78,93 105,163 52,135 27,211 85,393 58,123 276,89 226,-91 -44,-201 -123,-344 -225,-450 -118,-124 -236,-248 -354,-372 -42,-25 -61,-55 -59,-88 25,-55 51,-110 76,-165 41,-61 44,-139 -22,-248 -83,-76 -162,-131 -200,-10 -16,-7 -31,-15 -47,-22z"/>
    </clipPath>
     <clipPath id="id1">
      <path d="M468 414c-1,62 10,125 35,190 5,20 19,27 36,31 10,-23 16,-48 -5,-91 -19,-48 -41,-91 -66,-130zm-71 -134c-147,-33 -177,46 -112,214 32,62 74,120 155,158 20,23 41,45 61,68 15,92 13,181 -12,266 -52,184 -104,368 -84,569 15,150 48,284 122,385 73,88 282,-23 186,-183 -141,-349 -123,-365 -124,-742 3,-36 5,-73 8,-109 72,88 144,177 216,265 47,57 78,93 105,163 52,135 27,211 85,393 58,123 276,89 226,-91 -44,-201 -123,-344 -225,-450 -118,-124 -236,-248 -354,-372 -42,-25 -61,-55 -59,-88 25,-55 51,-110 76,-165 41,-61 44,-139 -22,-248 -83,-76 -162,-131 -200,-10 -16,-7 -31,-15 -47,-22z"/>
     </clipPath>
     <clipPath id="id2">
      <path d="M468 414c-1,62 10,125 35,190 5,20 19,27 36,31 10,-23 16,-48 -5,-91 -19,-48 -41,-91 -66,-130zm-71 -134c-147,-33 -177,46 -112,214 32,62 74,120 155,158 20,23 41,45 61,68 15,92 13,181 -12,266 -52,184 -104,368 -84,569 15,150 48,284 122,385 73,88 282,-23 186,-183 -141,-349 -123,-365 -124,-742 3,-36 5,-73 8,-109 72,88 144,177 216,265 47,57 78,93 105,163 52,135 27,211 85,393 58,123 276,89 226,-91 -44,-201 -123,-344 -225,-450 -118,-124 -236,-248 -354,-372 -42,-25 -61,-55 -59,-88 25,-55 51,-110 76,-165 41,-61 44,-139 -22,-248 -83,-76 -162,-131 -200,-10 -16,-7 -31,-15 -47,-22z"/>
     </clipPath>
    <clipPath id="id3">
     <path d="M484 732c-33,20 -35,47 -10,83 26,37 39,18 83,3 59,5 91,-9 131,-19 39,-10 19,-62 -16,-84 -19,-11 -26,-9 -46,-5 -49,8 -90,15 -141,23z"/>
    </clipPath>
     <clipPath id="id4">
      <path d="M484 732c-33,20 -35,47 -10,83 26,37 39,18 83,3 59,5 91,-9 131,-19 39,-10 19,-62 -16,-84 -19,-11 -26,-9 -46,-5 -49,8 -90,15 -141,23z"/>
     </clipPath>
     <clipPath id="id5">
      <path d="M484 732c-33,20 -35,47 -10,83 26,37 39,18 83,3 59,5 91,-9 131,-19 39,-10 19,-62 -16,-84 -19,-11 -26,-9 -46,-5 -49,8 -90,15 -141,23z"/>
     </clipPath>
    <clipPath id="id6">
     <path d="M1328 339c9,-36 24,-69 62,-86 84,-15 59,112 3,167 -31,71 -20,121 -7,169 25,85 170,190 232,365 30,175 -51,278 -166,210 -52,-61 -62,-168 -75,-271 1,-74 -11,-129 -30,-176 -23,-56 -29,-117 -28,-180 -10,58 -17,111 -49,162 -10,17 -20,35 -29,53 -6,121 -17,239 -47,340 -29,60 -101,81 -144,44 -112,-94 -77,-243 -17,-342 49,-81 84,-91 149,-150 68,-63 130,-143 67,-225 -39,-51 -52,-26 -46,-109 4,-51 25,-72 58,-70 45,18 54,65 62,112l2 80c2,-33 4,-65 5,-96z"/>
    </clipPath>
     <clipPath id="id7">
      <path d="M1328 339c9,-36 24,-69 62,-86 84,-15 59,112 3,167 -31,71 -20,121 -7,169 25,85 170,190 232,365 30,175 -51,278 -166,210 -52,-61 -62,-168 -75,-271 1,-74 -11,-129 -30,-176 -23,-56 -29,-117 -28,-180 -10,58 -17,111 -49,162 -10,17 -20,35 -29,53 -6,121 -17,239 -47,340 -29,60 -101,81 -144,44 -112,-94 -77,-243 -17,-342 49,-81 84,-91 149,-150 68,-63 130,-143 67,-225 -39,-51 -52,-26 -46,-109 4,-51 25,-72 58,-70 45,18 54,65 62,112l2 80c2,-33 4,-65 5,-96z"/>
     </clipPath>
     <clipPath id="id8">
      <path d="M1328 339c9,-36 24,-69 62,-86 84,-15 59,112 3,167 -31,71 -20,121 -7,169 25,85 170,190 232,365 30,175 -51,278 -166,210 -52,-61 -62,-168 -75,-271 1,-74 -11,-129 -30,-176 -23,-56 -29,-117 -28,-180 -10,58 -17,111 -49,162 -10,17 -20,35 -29,53 -6,121 -17,239 -47,340 -29,60 -101,81 -144,44 -112,-94 -77,-243 -17,-342 49,-81 84,-91 149,-150 68,-63 130,-143 67,-225 -39,-51 -52,-26 -46,-109 4,-51 25,-72 58,-70 45,18 54,65 62,112l2 80c2,-33 4,-65 5,-96z"/>
     </clipPath>
    <clipPath id="id9">
     <path d="M1396 568c31,-12 38,-35 22,-69 -16,-36 -31,-21 -71,-16 -50,-14 -80,-7 -115,-4 -35,2 -27,50 0,75 14,13 21,12 39,12 43,1 80,1 125,3z"/>
    </clipPath>
     <clipPath id="id10">
      <path d="M1396 568c31,-12 38,-35 22,-69 -16,-36 -31,-21 -71,-16 -50,-14 -80,-7 -115,-4 -35,2 -27,50 0,75 14,13 21,12 39,12 43,1 80,1 125,3z"/>
     </clipPath>
     <clipPath id="id11">
      <path d="M1396 568c31,-12 38,-35 22,-69 -16,-36 -31,-21 -71,-16 -50,-14 -80,-7 -115,-4 -35,2 -27,50 0,75 14,13 21,12 39,12 43,1 80,1 125,3z"/>
     </clipPath>
  <radialGradient id="id12" gradientUnits="objectBoundingBox" cx="51.0003%" cy="44.9996%" r="50%" fx="51.0003%" fy="44.9996%">
   <stop offset="0" style="stop-color:#9A3133"/>
   <stop offset="0.470588" style="stop-color:#9C3133"/>
   <stop offset="1" style="stop-color:#ED3237"/>
  </radialGradient>
 </defs>
 <g id="Capa_x0020_1">
  <metadata id="CorelCorpID_0Corel-Layer"/>
  <path class="fil0" d="M1019 0c563,0 1019,456 1019,1019 0,563 -456,1019 -1019,1019 -563,0 -1019,-456 -1019,-1019 0,-563 456,-1019 1019,-1019z"/>
  <circle class="fil1" cx="1019" cy="1024" r="982"/>
  <circle class="fil1" cx="1019" cy="1024" r="862"/>
  <path class="fil2" d="M1848 721c-133,-362 -459,-618 -839,-618 -367,0 -683,238 -824,580 260,146 555,228 868,228 284,0 554,-68 795,-189z"/>
  <path class="fil3" d="M1019 2109c365,0 660,47 660,104 0,58 -296,104 -660,104 -365,0 -660,-47 -660,-104 0,-58 296,-104 660,-104z"/>
  <path class="fil4" d="M1019 2137c294,0 532,34 532,76 0,42 -238,76 -532,76 -294,0 -532,-34 -532,-76 0,-42 238,-76 532,-76z"/>
  <path class="fil5" d="M223 1336l0 0zm0 0c-38,-4 220,529 779,529 352,0 656,-219 806,-537 -827,1050 -1573,8 -1585,8z"/>
  <g id="_803055200">
   <path class="fil6" d="M452 433c-1,62 10,125 35,190 5,20 19,27 36,31 10,-23 16,-48 -5,-91 -19,-48 -41,-91 -66,-130zm-71 -134c-147,-33 -177,46 -112,214 32,62 74,120 155,158 20,23 41,45 61,68 15,92 13,181 -12,266 -52,184 -104,368 -84,569 15,150 48,284 122,385 73,88 282,-23 186,-183 -141,-349 -123,-365 -124,-742 3,-36 5,-73 8,-109 72,88 144,177 216,265 47,57 78,93 105,163 52,135 27,210 85,393 58,123 276,89 226,-91 -44,-201 -123,-344 -225,-450 -118,-124 -236,-248 -354,-372 -42,-25 -61,-55 -59,-88 25,-55 51,-110 76,-165 41,-61 44,-139 -22,-248 -83,-76 -162,-131 -200,-10 -16,-7 -31,-15 -47,-22z"/>
   <path class="fil7" d="M468 414c-1,62 10,125 35,190 5,20 19,27 36,31 10,-23 16,-48 -5,-91 -19,-48 -41,-91 -66,-130zm-71 -134c-147,-33 -177,46 -112,214 32,62 74,120 155,158 20,23 41,45 61,68 15,92 13,181 -12,266 -52,184 -104,368 -84,569 15,150 48,284 122,385 73,88 282,-23 186,-183 -141,-349 -123,-365 -124,-742 3,-36 5,-73 8,-109 72,88 144,177 216,265 47,57 78,93 105,163 52,135 27,211 85,393 58,123 276,89 226,-91 -44,-201 -123,-344 -225,-450 -118,-124 -236,-248 -354,-372 -42,-25 -61,-55 -59,-88 25,-55 51,-110 76,-165 41,-61 44,-139 -22,-248 -83,-76 -162,-131 -200,-10 -16,-7 -31,-15 -47,-22z"/>
   <g style="clip-path:url(#id0)">
    <g>
    </g>
    <g style="clip-path:url(#id1)">
     <image x="67" y="54" width="1301" height="2038" xlink:href="logo_ES2_Images\logo_ES2_ImgID1.png"/>
    </g>
    <g style="clip-path:url(#id2)">
    </g>
   </g>
   <path class="fil8" d="M468 414c-1,62 10,125 35,190 5,20 19,27 36,31 10,-23 16,-48 -5,-91 -19,-48 -41,-91 -66,-130zm-71 -134c-147,-33 -177,46 -112,214 32,62 74,120 155,158 20,23 41,45 61,68 15,92 13,181 -12,266 -52,184 -104,368 -84,569 15,150 48,284 122,385 73,88 282,-23 186,-183 -141,-349 -123,-365 -124,-742 3,-36 5,-73 8,-109 72,88 144,177 216,265 47,57 78,93 105,163 52,135 27,211 85,393 58,123 276,89 226,-91 -44,-201 -123,-344 -225,-450 -118,-124 -236,-248 -354,-372 -42,-25 -61,-55 -59,-88 25,-55 51,-110 76,-165 41,-61 44,-139 -22,-248 -83,-76 -162,-131 -200,-10 -16,-7 -31,-15 -47,-22z"/>
   <path class="fil9" d="M487 742c-33,20 -35,47 -10,83 26,37 39,18 83,3 59,5 91,-9 131,-19 39,-10 19,-62 -16,-84 -19,-11 -26,-9 -46,-5 -49,8 -90,15 -141,23z"/>
   <path class="fil10" d="M484 732c-33,20 -35,47 -10,83 26,37 39,18 83,3 59,5 91,-9 131,-19 39,-10 19,-62 -16,-84 -19,-11 -26,-9 -46,-5 -49,8 -90,15 -141,23z"/>
   <g style="clip-path:url(#id3)">
    <g>
    </g>
    <g style="clip-path:url(#id4)">
     <image x="422" y="654" width="329" height="217" xlink:href="logo_ES2_Images\logo_ES2_ImgID2.png"/>
    </g>
    <g style="clip-path:url(#id5)">
    </g>
   </g>
   <path class="fil8" d="M484 732c-33,20 -35,47 -10,83 26,37 39,18 83,3 59,5 91,-9 131,-19 39,-10 19,-62 -16,-84 -19,-11 -26,-9 -46,-5 -49,8 -90,15 -141,23z"/>
  </g>
  <g id="_806184256">
   <path class="fil11" d="M1328 339c9,-36 24,-69 62,-86 84,-15 59,112 3,167 -31,71 -20,121 -7,169 25,85 170,190 232,365 30,175 -51,278 -166,210 -52,-61 -62,-168 -75,-271 1,-74 -11,-129 -30,-176 -23,-56 -29,-117 -28,-180 -10,58 -17,111 -49,162 -10,17 -20,35 -29,53 -6,121 -17,239 -47,340 -29,60 -101,81 -144,44 -112,-94 -77,-243 -17,-342 49,-81 84,-91 149,-150 68,-63 130,-143 67,-225 -39,-51 -52,-26 -46,-109 4,-51 25,-72 58,-70 45,18 54,65 62,112l2 80c2,-33 4,-65 5,-96z"/>
   <g style="clip-path:url(#id6)">
    <g>
    </g>
    <g style="clip-path:url(#id7)">
     <image x="947" y="206" width="722" height="1016" xlink:href="logo_ES2_Images\logo_ES2_ImgID3.png"/>
    </g>
    <g style="clip-path:url(#id8)">
    </g>
   </g>
   <path class="fil8" d="M1328 339c9,-36 24,-69 62,-86 84,-15 59,112 3,167 -31,71 -20,121 -7,169 25,85 170,190 232,365 30,175 -51,278 -166,210 -52,-61 -62,-168 -75,-271 1,-74 -11,-129 -30,-176 -23,-56 -29,-117 -28,-180 -10,58 -17,111 -49,162 -10,17 -20,35 -29,53 -6,121 -17,239 -47,340 -29,60 -101,81 -144,44 -112,-94 -77,-243 -17,-342 49,-81 84,-91 149,-150 68,-63 130,-143 67,-225 -39,-51 -52,-26 -46,-109 4,-51 25,-72 58,-70 45,18 54,65 62,112l2 80c2,-33 4,-65 5,-96z"/>
   <path class="fil9" d="M1396 578c31,-12 38,-35 22,-69 -16,-36 -31,-21 -71,-16 -50,-14 -80,-7 -115,-4 -35,2 -27,50 0,75 14,13 21,12 39,12 43,1 80,1 125,3z"/>
   <path class="fil10" d="M1396 568c31,-12 38,-35 22,-69 -16,-36 -31,-21 -71,-16 -50,-14 -80,-7 -115,-4 -35,2 -27,50 0,75 14,13 21,12 39,12 43,1 80,1 125,3z"/>
   <g style="clip-path:url(#id9)">
    <g>
    </g>
    <g style="clip-path:url(#id10)">
     <image x="1179" y="454" width="266" height="143" xlink:href="logo_ES2_Images\logo_ES2_ImgID4.png"/>
    </g>
    <g style="clip-path:url(#id11)">
    </g>
   </g>
   <path class="fil8" d="M1396 568c31,-12 38,-35 22,-69 -16,-36 -31,-21 -71,-16 -50,-14 -80,-7 -115,-4 -35,2 -27,50 0,75 14,13 21,12 39,12 43,1 80,1 125,3z"/>
  </g>
  <path class="fil12" d="M968 326c54,0 98,44 98,99 0,55 -44,99 -98,99 -54,0 -98,-44 -98,-99 0,-55 44,-99 98,-99z"/>
  <ellipse class="fil13" cx="968" cy="425" rx="91" ry="93"/>
  <path class="fil12" d="M290 1020c32,14 42,63 22,108 -20,46 -62,71 -95,57 -32,-14 -42,-63 -22,-108 20,-46 62,-71 95,-57z"/>
  <ellipse class="fil13" transform="matrix(0.252417 0.111132 -0.140177 0.318388 254.021 1102.4)" rx="215" ry="244"/>
  <path class="fil12" d="M844 1507c35,0 63,29 63,64 0,36 -28,64 -63,64 -35,0 -63,-29 -63,-64 0,-36 28,-64 63,-64z"/>
  <ellipse class="fil13" cx="844" cy="1572" rx="59" ry="60"/>
  <path class="fil14" d="M1490 1327c25,5 40,37 33,72 -7,35 -32,59 -57,55 -25,-5 -40,-37 -33,-72 7,-35 32,-59 57,-55z"/>
  <ellipse class="fil13" transform="matrix(0.197281 0.0374514 -0.0461939 0.243334 1477.63 1390.34)" rx="215" ry="244"/>
  <path class="fil14" d="M892 679c25,4 40,28 33,55 -7,27 -32,45 -57,42 -25,-4 -40,-28 -33,-55 7,-27 32,-45 57,-42z"/>
  <ellipse class="fil13" transform="matrix(0.197281 0.0285275 -0.0461939 0.185352 879.511 727.16)" rx="215" ry="244"/>
  <path class="fil15" d="M1173 1078c-8,31 -36,53 -69,53 -32,0 -58,-20 -68,-49 16,16 40,26 67,26 29,0 55,-12 71,-31z"/>
  <path class="fil15" d="M1598 1063c2,37 -21,72 -58,84 -35,11 -72,-2 -93,-31 23,12 53,15 83,6 33,-10 57,-33 68,-59z"/>
  <path class="fil15" d="M709 1865c-12,47 -55,82 -106,82 -48,0 -89,-31 -104,-75 24,25 61,40 102,40 45,0 84,-19 108,-47z"/>
  <path class="fil15" d="M1225 1696c-12,47 -55,82 -106,82 -48,0 -89,-31 -104,-75 24,25 61,40 102,40 45,0 84,-19 108,-47z"/>
  <path class="fil15" d="M296 443c-30,-26 -39,-70 -20,-107 18,-35 56,-53 93,-48 -27,8 -52,29 -67,59 -17,33 -18,68 -6,96z"/>
 </g>
</svg>
