<?xml version="1.0" encoding="UTF-8"?>
<!DOCTYPE svg PUBLIC "-//W3C//DTD SVG 1.1//EN" "http://www.w3.org/Graphics/SVG/1.1/DTD/svg11.dtd">
<!-- Creator: CorelDRAW X6 -->
<svg xmlns="http://www.w3.org/2000/svg" xml:space="preserve" width="43.0841mm" height="9.8151mm" version="1.1" style="shape-rendering:geometricPrecision; text-rendering:geometricPrecision; image-rendering:optimizeQuality; fill-rule:evenodd; clip-rule:evenodd"
viewBox="0 0 4308 982"
 xmlns:xlink="http://www.w3.org/1999/xlink">
 <defs>
  <style type="text/css">
   <![CDATA[
    .fil2 {fill:#D2D3D5}
    .fil7 {fill:#E6E7E8}
    .fil0 {fill:#606062;fill-rule:nonzero}
    .fil1 {fill:#A02B2D;fill-rule:nonzero}
    .fil8 {fill:#FEFEFE;fill-opacity:0.129412}
    .fil4 {fill:#FEFEFE;fill-opacity:0.160784}
    .fil5 {fill:#FEFEFE;fill-opacity:0.501961}
    .fil6 {fill:url(#id0)}
    .fil3 {fill:url(#id1)}
   ]]>
  </style>
  <linearGradient id="id0" gradientUnits="userSpaceOnUse" x1="2.78999" y1="426.239" x2="1105.01" y2="426.239">
   <stop offset="0" style="stop-color:#201E1E"/>
   <stop offset="1" style="stop-color:#ED3237"/>
  </linearGradient>
  <radialGradient id="id1" gradientUnits="objectBoundingBox" cx="51.0003%" cy="44.9996%" r="50%" fx="51.0003%" fy="44.9996%">
   <stop offset="0" style="stop-color:#9A3133"/>
   <stop offset="0.470588" style="stop-color:#9C3133"/>
   <stop offset="1" style="stop-color:#ED3237"/>
  </radialGradient>
 </defs>
 <g id="Capa_x0020_1">
  <metadata id="CorelCorpID_0Corel-Layer"/>
  <g id="_148331808">
   <path class="fil0" d="M3123 120c68,0 121,18 159,54 38,36 59,78 63,124l-72 0c-8,-35 -24,-63 -48,-84 -24,-21 -58,-31 -101,-31 -53,0 -95,19 -128,56 -32,38 -49,95 -49,173 0,64 15,116 44,155 29,40 73,60 131,60 53,0 94,-21 122,-62 15,-22 26,-51 33,-86l72 0c-6,57 -27,105 -63,144 -43,47 -100,70 -173,70 -63,0 -115,-19 -158,-58 -56,-51 -84,-129 -84,-235 0,-80 21,-146 63,-197 45,-56 108,-84 188,-84z"/>
   <path id="1" class="fil0" d="M3726 455l-84 -240 -87 240 170 0zm-122 -321l83 0 197 545 -81 0 -57 -164 -213 0 -59 164 -76 0 205 -545z"/>
   <polygon id="2" class="fil0" points="3950,134 4025,134 4025,614 4296,614 4296,679 3950,679 "/>
   <polygon class="fil1" points="2974,848 2904,848 2904,809 2967,809 2967,795 2904,795 2904,759 2972,759 2972,746 2888,746 2888,862 2974,862 "/>
   <path id="1" class="fil1" d="M3050 801c0,-4 -2,-27 -32,-27 -17,0 -32,8 -32,27 0,12 8,18 20,21l16 4c12,3 17,5 17,12 0,9 -9,13 -19,13 -20,0 -22,-11 -22,-17l-14 0c0,10 3,30 36,30 19,0 33,-11 33,-28 0,-11 -6,-18 -24,-22l-14 -4c-11,-3 -15,-4 -15,-11 0,-11 12,-12 17,-12 18,0 20,9 20,14l14 0z"/>
   <path id="2" class="fil1" d="M3136 806c-1,-15 -10,-31 -32,-31 -28,0 -41,21 -41,47 0,24 14,42 38,42 25,0 33,-19 34,-32l-14 0c-2,13 -11,20 -20,20 -20,0 -23,-18 -23,-33 0,-15 6,-32 23,-32 12,0 18,7 20,18l14 0z"/>
   <path id="3" class="fil1" d="M3163 803c1,-6 3,-16 19,-16 13,0 20,5 20,14 0,8 -4,10 -7,10l-23 3c-24,3 -26,19 -26,27 0,15 11,24 27,24 16,0 25,-8 31,-14 0,6 2,13 15,13 3,0 5,-1 8,-2l0 -10c-2,0 -3,1 -5,1 -3,0 -5,-1 -5,-5l0 -49c0,-22 -25,-24 -31,-24 -21,0 -34,8 -35,28l13 0zm39 30c0,11 -13,20 -26,20 -11,0 -15,-5 -15,-15 0,-11 11,-13 18,-14 18,-2 21,-4 23,-5l0 14z"/>
   <polygon id="4" class="fil1" points="3255,746 3240,746 3240,862 3255,862 "/>
   <path id="5" class="fil1" d="M3289 803c1,-6 3,-16 19,-16 13,0 20,5 20,14 0,8 -4,10 -7,10l-23 3c-24,3 -26,19 -26,27 0,15 11,24 27,24 16,0 25,-8 31,-14 0,6 2,13 15,13 3,0 5,-1 8,-2l0 -10c-2,0 -3,1 -5,1 -3,0 -5,-1 -5,-5l0 -49c0,-22 -25,-24 -31,-24 -21,0 -34,8 -35,28l13 0zm39 30c0,11 -13,20 -26,20 -11,0 -15,-5 -15,-15 0,-11 11,-13 18,-14 18,-2 21,-4 23,-5l0 14z"/>
   <path id="6" class="fil1" d="M3428 801c0,-4 -2,-27 -32,-27 -17,0 -32,8 -32,27 0,12 8,18 20,21l16 4c12,3 17,5 17,12 0,9 -9,13 -19,13 -20,0 -22,-11 -22,-17l-14 0c0,10 3,30 36,30 19,0 33,-11 33,-28 0,-11 -6,-18 -24,-22l-14 -4c-11,-3 -15,-4 -15,-11 0,-11 12,-12 17,-12 18,0 20,9 20,14l14 0z"/>
   <path id="7" class="fil1" d="M3511 759l32 0c13,0 23,5 23,19 0,16 -10,21 -24,21l-31 0 0 -40zm0 54l37 0c25,0 34,-18 34,-34 0,-19 -13,-33 -34,-33l-52 0 0 116 16 0 0 -49z"/>
   <path id="8" class="fil1" d="M3607 813c0,-12 8,-23 22,-23l5 0 0 -15c-1,0 -2,0 -4,0 -11,0 -18,7 -24,16l0 0 0 -14 -13 0 0 85 14 0 0 -49z"/>
   <path id="9" class="fil1" d="M3637 819c0,22 12,45 39,45 27,0 39,-23 39,-45 0,-22 -12,-45 -39,-45 -27,0 -39,23 -39,45zm15 0c0,-11 4,-32 25,-32 20,0 25,21 25,32 0,11 -4,32 -25,32 -20,0 -25,-21 -25,-32z"/>
   <path id="10" class="fil1" d="M3800 804c0,-24 -16,-29 -30,-29 -15,0 -22,10 -26,14l0 0 0 -12 -13 0 0 85 14 0 0 -46c0,-23 14,-28 22,-28 14,0 18,7 18,22l0 52 14 0 0 -58z"/>
   <path id="11" class="fil1" d="M3816 819c0,22 12,45 39,45 27,0 39,-23 39,-45 0,-22 -12,-45 -39,-45 -27,0 -39,23 -39,45zm15 0c0,-11 4,-32 25,-32 20,0 25,21 25,32 0,11 -4,32 -25,32 -20,0 -25,-21 -25,-32zm49 -76l-17 0 -14 23 11 0 21 -23z"/>
   <path id="12" class="fil1" d="M3973 801c0,-4 -2,-27 -32,-27 -17,0 -32,8 -32,27 0,12 8,18 20,21l16 4c12,3 17,5 17,12 0,9 -9,13 -19,13 -20,0 -22,-11 -22,-17l-14 0c0,10 3,30 36,30 19,0 33,-11 33,-28 0,-11 -6,-18 -24,-22l-14 -4c-11,-3 -15,-4 -15,-11 0,-11 12,-12 17,-12 18,0 20,9 20,14l14 0z"/>
   <path id="13" class="fil1" d="M4023 789l0 -12 -14 0 0 -24 -14 0 0 24 -11 0 0 12 11 0 0 56c0,10 3,18 17,18 1,0 5,-1 11,-1l0 -11 -5 0c-3,0 -9,0 -9,-7l0 -55 14 0z"/>
   <path id="14" class="fil1" d="M4052 777l-14 0 0 85 14 0 0 -85zm0 -15l0 -16 -14 0 0 16 14 0z"/>
   <path id="15" class="fil1" d="M4140 806c-1,-15 -10,-31 -32,-31 -28,0 -41,21 -41,47 0,24 14,42 38,42 25,0 33,-19 34,-32l-14 0c-2,13 -11,20 -20,20 -20,0 -23,-18 -23,-33 0,-15 6,-32 23,-32 12,0 18,7 20,18l14 0z"/>
   <path id="16" class="fil1" d="M4167 803c1,-6 3,-16 19,-16 13,0 20,5 20,14 0,8 -4,10 -7,10l-23 3c-24,3 -26,19 -26,27 0,15 11,24 27,24 16,0 25,-8 31,-14 0,6 2,13 15,13 3,0 5,-1 8,-2l0 -10c-2,0 -3,1 -5,1 -3,0 -5,-1 -5,-5l0 -49c0,-22 -25,-24 -31,-24 -21,0 -34,8 -35,28l13 0zm39 30c0,11 -13,20 -26,20 -11,0 -15,-5 -15,-15 0,-11 11,-13 18,-14 18,-2 21,-4 23,-5l0 14z"/>
   <path id="17" class="fil1" d="M4306 801c0,-4 -2,-27 -32,-27 -17,0 -32,8 -32,27 0,12 8,18 20,21l16 4c12,3 17,5 17,12 0,9 -9,13 -19,13 -20,0 -22,-11 -22,-17l-14 0c0,10 3,30 36,30 19,0 33,-11 33,-28 0,-11 -6,-18 -24,-22l-14 -4c-11,-3 -15,-4 -15,-11 0,-11 12,-12 17,-12 18,0 20,9 20,14l14 0z"/>
   <rect class="fil2" x="2710" width="66.2198" height="791.098" rx="33" ry="39"/>
   <g>
    <circle class="fil3" cx="517" cy="439" r="415"/>
    <circle class="fil3" cx="517" cy="439" r="364"/>
    <path class="fil4" d="M869 310c-56,-153 -194,-261 -355,-261 -155,0 -288,101 -348,245 110,62 235,96 367,96 120,0 234,-29 336,-80z"/>
    <path class="fil5" d="M18 589c-6,3 -14,0 -17,-6 -3,-6 0,-14 6,-17l90 -39c3,-1 6,-1 8,-1l73 14 56 0 101 -80c5,-4 13,-3 18,2 2,2 3,5 3,7l6 63 46 -14c3,-1 6,-1 9,1l79 -414c1,-7 8,-11 15,-10 6,1 10,6 10,12l20 508 16 -115c1,-7 7,-12 14,-11 3,0 6,2 8,5l7 8 30 -47c4,-6 12,-8 18,-4 1,1 2,2 3,3l0 0 75 97 58 -46c3,-2 7,-3 10,-2l0 0 120 25 58 -3 83 -83c5,-5 13,-5 18,0 3,3 4,7 4,10l-3 70 20 -11c6,-3 14,-1 17,5 3,6 1,14 -5,17l-39 21c-2,1 -4,2 -7,2 -7,0 -12,-6 -12,-13l2 -61 -63 63 0 0c-2,2 -5,4 -8,4l-65 4 0 0c-1,0 -2,0 -3,0l-116 -24 -63 50 -1 1c-6,4 -14,3 -18,-2l-72 -93 -30 46 0 0c-1,1 -2,2 -3,3 -5,4 -13,4 -17,-1l-32 227 0 0c-1,6 -6,11 -12,11 -7,0 -13,-5 -13,-12l-21 -539 -69 360c-1,6 -5,10 -11,11 -7,1 -13,-4 -14,-11l-5 -32 -47 14 0 0c-1,0 -2,0 -2,0 -7,1 -13,-5 -14,-11l-5 -56 -85 68c-2,2 -5,3 -8,3l-61 0 0 0c-1,0 -2,0 -2,0l-72 -14 -86 38zm503 -482l0 0"/>
    <path class="fil6" d="M22 584c-6,3 -14,0 -17,-6 -3,-6 0,-14 6,-17l90 -39c3,-1 6,-1 8,-1l73 14 56 0 101 -80c5,-4 13,-3 18,2 2,2 3,5 3,7l6 63 46 -14c3,-1 6,-1 9,1l79 -414c1,-7 8,-11 15,-10 6,1 10,6 10,12l20 508 16 -115c1,-7 7,-12 14,-11 3,0 6,2 8,5l7 8 30 -47c4,-6 12,-8 18,-4 1,1 2,2 3,3l0 0 75 97 58 -46c3,-2 7,-3 10,-2l0 0 120 25 58 -3 83 -83c5,-5 13,-5 18,0 3,3 4,7 4,10l-3 70 20 -11c6,-3 14,-1 17,5 3,6 1,14 -5,17l-39 21c-2,1 -4,2 -7,2 -7,0 -12,-6 -12,-13l2 -61 -63 63 0 0c-2,2 -5,4 -8,4l-65 4 0 0c-1,0 -2,0 -3,0l-116 -24 -63 50 -1 1c-6,4 -14,3 -18,-2l-72 -93 -30 46 0 0c-1,1 -2,2 -3,3 -5,4 -13,4 -17,-1l-32 227 0 0c-1,6 -6,11 -12,11 -7,0 -13,-5 -13,-12l-21 -539 -69 360c-1,6 -5,10 -11,11 -7,1 -13,-4 -14,-11l-5 -32 -47 14 0 0c-1,0 -2,0 -2,0 -7,1 -13,-5 -14,-11l-5 -56 -85 68c-2,2 -5,3 -8,3l-61 0 0 0c-1,0 -2,0 -2,0l-72 -14 -86 38zm503 -482l0 0"/>
    <ellipse class="fil7" cx="517" cy="941" rx="256" ry="40"/>
    <path class="fil8" d="M181 571l0 0zm0 0c-16,-2 93,224 329,224 149,0 277,-92 340,-227 -349,443 -664,3 -669,3z"/>
   </g>
   <polygon class="fil1" points="1085,134 1159,134 1159,614 1430,614 1430,679 1085,679 "/>
   <path id="1" class="fil1" d="M1505 134l106 0 156 460 155 -460 105 0 0 545 -71 0 0 -321c0,-11 0,-29 1,-55 1,-26 1,-53 1,-83l-156 459 -73 0 -157 -459 0 17c0,13 0,34 1,61 1,27 1,47 1,60l0 321 -71 0 0 -545z"/>
   <path id="2" class="fil1" d="M2365 120c68,0 121,18 159,54 38,36 59,78 63,124l-72 0c-8,-35 -24,-63 -48,-84 -24,-21 -58,-31 -101,-31 -53,0 -95,19 -128,56 -32,38 -49,95 -49,173 0,64 15,116 44,155 29,40 73,60 131,60 53,0 94,-21 122,-62 15,-22 26,-51 33,-86l72 0c-6,57 -27,105 -63,144 -43,47 -100,70 -173,70 -63,0 -115,-19 -158,-58 -56,-51 -84,-129 -84,-235 0,-80 21,-146 63,-197 45,-56 108,-84 188,-84z"/>
  </g>
 </g>
</svg>
